<?xml version="1.0" standalone="no"?>
<!DOCTYPE svg PUBLIC "-//W3C//DTD SVG 20010904//EN"
 "http://www.w3.org/TR/2001/REC-SVG-20010904/DTD/svg10.dtd">
<svg version="1.0" xmlns="http://www.w3.org/2000/svg"
 width="1804.000000pt" height="989.000000pt" viewBox="0 0 1804.000000 989.000000"
 preserveAspectRatio="xMidYMid meet">

<g transform="translate(0.000000,989.000000) scale(0.100000,-0.100000)"
fill="#ffffff" stroke="none">
<path d="M6535 9859 c-22 -10 -78 -31 -125 -45 -47 -14 -186 -64 -310 -111
-124 -47 -308 -114 -410 -148 -102 -35 -221 -78 -265 -95 -44 -18 -153 -56
-241 -86 -89 -29 -242 -85 -340 -125 -99 -39 -235 -91 -304 -116 -69 -24 -170
-64 -225 -88 -55 -24 -137 -53 -182 -64 -106 -27 -547 -188 -823 -300 -254
-104 -297 -159 -326 -420 -8 -73 -17 -138 -21 -144 -4 -6 -10 -72 -14 -147 -5
-87 -14 -156 -27 -195 -14 -43 -21 -103 -25 -215 -4 -85 -13 -206 -22 -269 -8
-63 -15 -158 -15 -210 0 -57 -8 -134 -20 -191 -11 -53 -25 -171 -30 -265 -6
-103 -17 -204 -29 -255 -12 -47 -21 -111 -21 -143 0 -33 -6 -82 -14 -110 -8
-29 -17 -106 -21 -172 -3 -66 -15 -174 -25 -240 -11 -66 -20 -155 -20 -198 0
-43 -5 -88 -11 -100 -7 -11 -12 -71 -13 -132 -1 -95 -5 -116 -24 -148 -17 -30
-22 -54 -22 -115 -1 -42 -10 -133 -21 -202 -11 -69 -24 -198 -29 -287 -5 -89
-17 -190 -25 -225 -8 -34 -15 -90 -15 -123 0 -33 -5 -78 -10 -100 -6 -22 -15
-103 -20 -180 -5 -77 -16 -180 -24 -230 -8 -49 -22 -173 -31 -274 -9 -101 -18
-188 -21 -192 -2 -4 -9 -86 -14 -181 -5 -95 -18 -219 -30 -276 -11 -56 -20
-140 -20 -186 0 -70 -3 -86 -20 -101 -17 -15 -20 -31 -20 -98 0 -43 -7 -104
-16 -134 -28 -98 6 -194 89 -251 41 -29 420 -205 564 -263 80 -33 130 -36 174
-13 56 29 77 110 99 379 5 70 16 130 29 163 12 29 21 74 21 100 0 26 7 92 15
147 8 55 15 128 15 162 0 64 47 487 56 513 3 8 10 78 14 155 6 99 14 155 28
190 12 32 21 88 25 156 12 199 40 223 213 183 43 -9 85 -13 118 -9 36 5 78 0
141 -14 50 -11 174 -34 277 -51 102 -17 212 -39 244 -50 35 -12 83 -20 124
-20 37 0 89 -7 116 -15 27 -8 68 -15 92 -15 51 0 178 -60 186 -87 2 -10 7 -52
11 -93 3 -41 13 -111 20 -155 8 -44 19 -147 25 -230 5 -82 15 -177 20 -210 6
-33 13 -123 15 -200 2 -77 11 -185 19 -240 9 -55 13 -114 10 -132 -4 -23 0
-39 18 -63 21 -29 23 -40 20 -128 -2 -74 1 -107 14 -137 11 -26 19 -86 24
-175 4 -74 12 -148 19 -164 6 -15 14 -76 16 -135 5 -93 16 -249 44 -582 9
-112 30 -164 99 -240 39 -44 70 -63 216 -134 237 -115 1149 -520 1215 -539 63
-19 153 -21 183 -5 11 6 107 33 212 59 105 27 247 66 316 89 69 22 167 49 219
60 52 12 132 32 177 46 45 14 125 34 178 45 52 11 180 44 283 74 104 30 242
70 308 89 66 19 160 42 208 51 48 9 251 63 450 121 199 57 443 124 542 150
173 45 494 133 850 235 94 27 289 79 435 115 146 36 360 95 475 130 116 35
230 69 255 74 25 6 71 19 102 30 31 11 97 27 145 36 91 16 309 75 468 126 125
39 698 196 820 224 119 28 352 90 560 150 83 24 258 72 390 106 132 33 313 83
402 110 89 26 179 51 200 54 21 4 81 20 133 35 52 16 140 38 195 49 55 12 161
39 235 61 339 101 596 174 763 215 100 25 223 59 272 75 50 16 119 34 155 40
89 16 446 109 648 169 92 28 205 59 252 70 47 11 133 36 190 55 58 19 142 45
188 57 l82 21 0 1727 0 1728 -62 17 c-105 28 -477 146 -573 181 -49 18 -184
61 -300 95 -115 34 -307 93 -425 131 -118 39 -294 92 -390 119 -202 56 -502
148 -845 260 -132 43 -284 90 -339 105 -54 14 -162 48 -240 74 -207 71 -434
141 -457 141 -11 0 -43 9 -72 19 -28 11 -78 29 -111 41 -32 11 -124 39 -205
60 -80 22 -290 84 -466 138 -176 55 -417 128 -535 162 -193 55 -415 122 -645
194 -44 13 -121 40 -170 60 -50 19 -142 46 -205 61 -63 14 -162 41 -220 60
-58 19 -168 53 -245 75 -194 57 -523 160 -755 235 -341 111 -1021 320 -1140
350 -36 9 -95 27 -132 40 -38 14 -98 32 -135 40 -38 9 -214 63 -393 121 -379
123 -559 180 -835 265 -110 33 -247 76 -305 95 -58 19 -151 45 -206 58 -55 14
-125 34 -155 46 -29 12 -119 39 -199 60 -80 22 -170 48 -200 59 -49 18 -78 20
-275 20 -196 -1 -224 -3 -260 -20z m2246 -1208 c74 -22 150 -42 169 -46 41 -8
435 -119 629 -177 73 -22 220 -62 325 -88 347 -87 579 -150 701 -190 66 -22
197 -58 290 -80 94 -22 220 -56 280 -75 61 -18 150 -43 198 -54 49 -12 127
-35 174 -51 47 -17 178 -53 292 -80 113 -28 265 -68 336 -90 72 -21 177 -50
235 -65 58 -14 146 -39 195 -55 50 -16 131 -39 180 -51 86 -20 414 -111 798
-221 201 -58 220 -70 231 -144 3 -26 6 -188 6 -361 0 -349 -3 -369 -59 -393
-25 -10 -40 -10 -70 -1 -21 6 -65 11 -97 11 -33 0 -114 13 -180 29 -66 17
-174 37 -240 46 -65 9 -182 29 -259 45 -77 15 -165 31 -195 35 -30 3 -102 15
-160 25 -58 10 -155 26 -217 35 -62 9 -145 25 -185 36 -40 11 -111 25 -157 30
-47 5 -139 21 -205 34 -67 13 -173 31 -236 40 -63 9 -160 24 -215 35 -55 10
-122 21 -150 25 -27 4 -99 17 -160 31 -60 14 -155 29 -210 35 -55 5 -156 23
-224 40 -150 37 -213 35 -264 -11 l-32 -28 -3 -1979 c-2 -1472 0 -1989 9
-2020 31 -112 168 -165 282 -108 17 8 56 15 88 15 32 0 103 9 157 19 55 11
137 22 183 26 46 4 122 17 169 30 50 14 129 26 192 29 59 4 174 17 255 31 81
13 207 31 278 40 72 9 172 25 224 35 52 11 165 27 252 35 87 8 194 22 236 31
43 9 118 19 166 23 98 8 130 25 159 82 16 31 18 77 18 522 0 537 1 528 -62
583 l-36 31 -158 7 c-122 6 -183 4 -261 -8 -71 -11 -179 -16 -345 -17 -134 0
-268 -5 -298 -10 -30 -5 -170 -12 -310 -15 l-256 -7 -27 24 c-16 14 -32 41
-37 64 -5 22 -10 263 -10 535 0 433 2 498 16 518 14 21 22 22 157 22 78 0 185
-5 237 -10 52 -6 201 -14 330 -20 129 -5 271 -16 315 -25 44 -8 132 -15 195
-15 63 0 156 -7 205 -15 50 -8 134 -15 188 -15 54 0 171 -9 260 -20 212 -25
406 -40 534 -40 117 0 162 -13 190 -56 17 -27 18 -81 21 -1094 2 -745 -1
-1085 -8 -1132 -15 -88 -54 -167 -148 -302 -43 -61 -115 -165 -160 -232 -132
-195 -212 -254 -371 -274 -44 -6 -118 -22 -163 -35 -74 -23 -325 -83 -848
-205 -96 -22 -249 -58 -340 -80 -91 -22 -222 -49 -291 -60 -69 -11 -159 -31
-200 -46 -41 -14 -110 -34 -154 -44 -44 -9 -125 -29 -180 -43 -55 -14 -179
-42 -275 -62 -96 -20 -245 -54 -330 -75 -381 -97 -565 -140 -695 -164 -77 -14
-172 -36 -212 -50 -39 -13 -98 -28 -130 -31 -32 -4 -98 -20 -147 -36 -49 -16
-132 -38 -185 -49 -53 -12 -141 -32 -196 -46 -129 -33 -236 -42 -253 -22 -9
12 -12 830 -12 3759 0 3521 1 3745 17 3756 30 22 106 14 244 -26z m-4223
-1386 c77 -33 82 -43 82 -185 0 -69 7 -182 16 -250 8 -69 19 -201 24 -295 5
-93 14 -188 20 -210 6 -22 15 -123 20 -225 6 -102 14 -216 19 -255 6 -38 10
-125 10 -192 1 -110 -1 -125 -19 -143 -19 -19 -33 -20 -544 -20 -501 0 -525 1
-547 19 -23 18 -24 24 -23 148 0 142 26 400 43 431 6 11 11 65 11 120 0 81 3
104 19 123 13 17 21 56 30 139 7 63 22 175 33 249 13 87 18 153 14 189 -7 63
24 195 54 225 22 23 165 57 385 91 55 9 125 24 155 35 69 23 149 26 198 6z
m10667 -379 c135 -44 168 -63 197 -118 l23 -43 0 -1945 0 -1945 -27 -46 c-34
-57 -72 -77 -186 -94 -48 -7 -116 -23 -152 -35 -75 -25 -146 -23 -167 6 -11
15 -13 394 -11 2122 l3 2104 25 20 c37 30 152 20 295 -26z m1215 -312 c36 -8
115 -30 175 -49 61 -19 166 -48 235 -64 69 -16 181 -48 250 -69 69 -22 210
-64 315 -93 104 -30 203 -63 220 -74 16 -11 40 -40 53 -65 22 -42 23 -55 20
-175 -4 -140 -16 -180 -62 -210 -42 -28 -86 -28 -169 -1 -42 14 -110 31 -150
37 -39 5 -166 28 -281 51 -299 57 -371 50 -418 -43 -16 -30 -18 -68 -18 -322
0 -232 3 -293 14 -316 14 -27 79 -90 94 -92 4 0 50 -2 102 -4 52 -1 158 -10
234 -19 85 -10 165 -14 205 -10 43 4 98 1 156 -9 50 -9 119 -19 155 -23 36 -3
76 -13 88 -21 52 -32 52 -35 52 -705 l0 -623 -25 -54 c-14 -29 -27 -72 -30
-94 -8 -62 -63 -173 -105 -211 -53 -48 -161 -89 -375 -141 -104 -25 -246 -62
-315 -80 -69 -19 -169 -41 -222 -50 -54 -8 -140 -28 -191 -45 -111 -35 -123
-36 -137 -11 -13 26 -14 24 19 58 21 23 31 45 36 84 4 30 20 104 35 164 16 61
31 131 35 157 12 87 74 146 180 168 28 5 120 19 206 30 86 11 170 25 185 31
16 7 85 15 154 19 125 7 213 26 282 61 69 35 68 29 68 366 0 196 -4 310 -11
326 -21 46 -55 56 -220 63 -124 5 -173 3 -249 -11 -78 -15 -148 -17 -394 -16
-175 1 -306 6 -317 11 -10 6 -23 27 -29 48 -8 26 -10 335 -8 1018 3 949 4 983
22 1003 23 25 49 26 136 5z"/>
<path d="M16290 9501 c-62 -7 -92 -21 -114 -53 -22 -31 -20 -61 7 -102 25 -36
49 -97 91 -234 14 -46 36 -98 49 -115 13 -18 47 -99 77 -182 29 -82 74 -199
100 -260 26 -60 55 -132 64 -160 36 -111 63 -134 195 -160 99 -21 178 -15 266
20 33 13 70 26 82 30 16 4 33 29 57 78 89 191 129 282 175 403 27 73 57 146
66 164 9 18 39 89 66 157 27 69 65 156 84 193 42 83 45 127 11 163 -33 36 -83
48 -228 54 -116 5 -130 4 -171 -16 -25 -12 -52 -32 -60 -45 -8 -12 -45 -109
-82 -216 -59 -172 -118 -311 -147 -348 -8 -9 -19 9 -43 68 -18 44 -39 88 -48
98 -26 30 -54 94 -87 202 -59 193 -99 243 -206 260 -63 11 -117 11 -204 1z"/>
<path d="M14918 9485 c-27 -15 -43 -50 -54 -122 -7 -49 22 -122 59 -146 31
-20 111 -35 234 -42 84 -6 105 -11 120 -27 17 -19 18 -49 19 -407 2 -448 2
-448 83 -484 70 -31 181 -30 245 3 95 49 90 28 96 462 l5 380 27 23 c28 24 75
36 207 54 81 10 112 28 149 81 27 41 30 119 4 170 -35 71 -23 70 -627 70 -452
-1 -544 -3 -567 -15z"/>
<path d="M1945 8215 c-69 -15 -217 -73 -279 -109 -112 -65 -150 -149 -196
-429 -13 -81 -26 -126 -40 -144 -12 -16 -20 -41 -20 -66 0 -22 -13 -90 -29
-151 -16 -61 -32 -142 -36 -181 -4 -38 -16 -91 -26 -118 -10 -26 -28 -89 -39
-139 -11 -50 -31 -118 -44 -152 -15 -37 -29 -103 -36 -166 -6 -58 -21 -131
-32 -162 -11 -31 -32 -105 -48 -165 -15 -59 -39 -140 -54 -179 -14 -39 -37
-136 -50 -215 -22 -130 -112 -448 -127 -449 -3 0 -20 66 -38 148 -18 81 -46
178 -62 215 -17 41 -33 103 -39 154 -6 48 -20 118 -30 157 -11 39 -27 109 -35
155 -9 45 -31 131 -50 190 -18 58 -40 152 -49 208 -15 94 -69 329 -116 501
-10 40 -26 121 -35 180 -18 123 -56 249 -86 280 -33 36 -61 36 -166 2 -118
-39 -168 -64 -177 -85 -11 -31 -7 -4455 5 -4477 12 -22 41 -36 184 -85 90 -31
104 -33 138 -23 71 21 67 -31 67 1026 -1 521 2 949 4 952 12 11 40 -78 57
-182 11 -60 30 -145 44 -188 14 -44 25 -90 25 -103 0 -28 71 -353 105 -480 13
-49 49 -214 79 -366 32 -158 66 -299 80 -330 13 -30 27 -70 30 -89 13 -63 17
-70 46 -85 39 -20 86 -19 108 3 20 20 74 213 92 327 6 38 20 84 31 101 10 17
19 45 19 62 0 17 15 79 34 139 18 59 41 151 51 203 9 52 30 125 46 162 16 36
29 76 29 87 0 31 55 288 94 436 19 72 36 144 38 160 2 19 9 30 18 30 13 0 15
-97 15 -815 l0 -815 -24 -115 c-27 -131 -32 -281 -12 -373 15 -70 83 -239 113
-284 42 -60 222 -150 425 -213 106 -33 161 -36 173 -10 4 8 15 47 24 85 14 64
16 335 16 2935 1 2847 0 2932 -31 3011 -19 49 -72 59 -184 34z"/>
</g>
</svg>
