<?xml version="1.0" standalone="no"?>
<!DOCTYPE svg PUBLIC "-//W3C//DTD SVG 20010904//EN"
 "http://www.w3.org/TR/2001/REC-SVG-20010904/DTD/svg10.dtd">
<svg version="1.0" xmlns="http://www.w3.org/2000/svg"
 width="512.000000pt" height="512.000000pt" viewBox="0 0 512.000000 512.000000"
 preserveAspectRatio="xMidYMid meet">

<g transform="translate(0.000000,512.000000) scale(0.100000,-0.100000)"
fill="#000000" stroke="none">
<path d="M1397 5109 c-106 -25 -201 -104 -251 -209 l-31 -65 0 -2275 0 -2275
31 -65 c39 -83 101 -145 184 -184 l65 -31 1165 0 1165 0 65 31 c113 54 186
148 210 269 8 44 10 653 8 2295 l-3 2235 -31 65 c-39 83 -101 145 -184 184
l-65 31 -1145 2 c-646 1 -1161 -3 -1183 -8z m1723 -234 c7 -9 15 -37 17 -63 4
-38 1 -53 -17 -74 l-21 -28 -539 0 -539 0 -21 28 c-18 21 -21 36 -17 74 7 84
-38 78 577 78 480 0 549 -2 560 -15z m610 -2040 l0 -1655 -1170 0 -1170 0 0
1655 0 1655 1170 0 1170 0 0 -1655z m-1075 -2014 c88 -39 139 -119 138 -216 0
-201 -238 -310 -384 -178 -98 89 -112 211 -38 319 57 84 189 119 284 75z"/>
</g>
</svg>
