<?xml version="1.0" standalone="no"?>
<!DOCTYPE svg PUBLIC "-//W3C//DTD SVG 20010904//EN"
 "http://www.w3.org/TR/2001/REC-SVG-20010904/DTD/svg10.dtd">
<svg version="1.0" xmlns="http://www.w3.org/2000/svg"
 width="512.000000pt" height="512.000000pt" viewBox="0 0 512.000000 512.000000"
 preserveAspectRatio="xMidYMid meet">

<g transform="translate(0.000000,512.000000) scale(0.100000,-0.100000)"
fill="#000000" stroke="none">
<path d="M255 4346 c-37 -16 -70 -52 -84 -89 -8 -20 -11 -435 -11 -1338 0
-1447 -4 -1352 66 -1405 l37 -29 429 -3 428 -3 0 -135 c0 -130 1 -136 25 -159
l24 -25 991 0 991 0 24 25 c24 23 25 29 25 160 l0 135 173 0 c160 0 175 2 195
20 40 38 37 93 -7 127 -12 10 -377 12 -1628 13 l-1613 0 0 1280 0 1280 1840 0
1840 0 0 -195 c0 -195 0 -196 25 -220 32 -33 78 -33 111 0 l25 25 -3 223 -3
224 -29 37 c-54 71 101 66 -1968 66 -1539 -1 -1878 -3 -1903 -14z m2785 -2946
l0 -80 -880 0 -880 0 0 80 0 80 880 0 880 0 0 -80z"/>
<path d="M4235 3714 c-120 -25 -207 -64 -294 -129 -100 -76 -124 -133 -76
-180 39 -39 74 -33 142 25 195 169 461 169 647 1 44 -40 64 -51 89 -51 44 0
77 35 77 80 0 76 -196 212 -355 245 -65 14 -184 18 -230 9z"/>
<path d="M4245 3387 c-59 -20 -86 -36 -127 -75 -28 -27 -38 -44 -38 -68 0 -75
77 -104 138 -52 41 34 95 52 136 44 17 -3 56 -22 86 -41 30 -19 63 -35 73 -35
28 0 77 54 77 86 0 34 -58 92 -125 123 -59 28 -164 36 -220 18z"/>
<path d="M1465 3215 c-16 -15 -25 -36 -25 -55 0 -19 9 -40 25 -55 22 -23 32
-25 120 -25 l95 0 0 -215 c0 -216 0 -216 25 -240 32 -33 78 -33 110 0 25 24
25 24 25 240 l0 215 95 0 c88 0 98 2 120 25 16 15 25 36 25 55 0 19 -9 40 -25
55 l-24 25 -271 0 -271 0 -24 -25z"/>
<path d="M2284 3228 c-23 -11 -44 -48 -44 -76 1 -9 60 -134 133 -277 114 -224
136 -261 160 -268 19 -6 38 -5 58 4 27 10 47 46 160 270 71 143 129 265 129
273 0 58 -58 97 -111 76 -26 -11 -43 -38 -117 -187 -48 -95 -89 -173 -92 -173
-3 0 -44 77 -90 171 -64 129 -92 174 -112 185 -31 16 -45 17 -74 2z"/>
<path d="M3775 2986 c-37 -16 -70 -52 -84 -89 -8 -19 -11 -341 -11 -1018 0
-1095 -4 -1032 66 -1085 l37 -29 538 0 c527 0 538 0 565 21 15 11 37 33 48 48
21 27 21 33 21 1045 l0 1018 -29 37 c-51 67 -39 66 -608 66 -405 -1 -519 -4
-543 -14z m1025 -1106 l0 -960 -480 0 -480 0 0 960 0 960 480 0 480 0 0 -960z"/>
<path d="M4122 2593 c-21 -8 -44 -63 -38 -89 9 -33 45 -64 76 -64 14 0 36 9
48 20 68 63 0 168 -86 133z"/>
<path d="M4442 2593 c-21 -8 -44 -63 -38 -89 9 -33 45 -64 76 -64 14 0 36 9
48 20 68 63 0 168 -86 133z"/>
<path d="M4122 2273 c-21 -8 -44 -63 -38 -89 9 -33 45 -64 76 -64 14 0 36 9
48 20 68 63 0 168 -86 133z"/>
<path d="M4442 2273 c-21 -8 -44 -63 -38 -89 9 -33 45 -64 76 -64 14 0 36 9
48 20 68 63 0 168 -86 133z"/>
<path d="M4235 1787 c-66 -22 -99 -43 -144 -92 -63 -68 -85 -124 -85 -215 0
-92 23 -148 89 -219 63 -68 129 -95 225 -95 96 0 162 27 225 95 66 71 89 127
89 219 0 55 -6 88 -21 122 -31 67 -104 142 -166 168 -63 27 -157 35 -212 17z
m160 -170 c43 -24 85 -91 85 -137 0 -45 -42 -113 -85 -138 -143 -82 -296 91
-202 228 46 68 130 88 202 47z"/>
<path d="M605 1948 c-62 -33 -60 -103 3 -137 65 -35 143 53 99 110 -14 19 -50
39 -69 39 -7 0 -22 -6 -33 -12z"/>
</g>
</svg>
